# xmcd
#
# Track frame offsets:
#  150
#  9695
#  18427
#  30212
#  41485
#  51212
#  61542
#  74960
#  86242
#  101657
#
# Disc length: 1595 seconds
#
# Revision: 0
# Processed by: cddbd v1.5.1PL2 Copyright (c) Steve Scherf et al.
# Submitted via: Collectorz.com_Music_Collector 6.9
#
DISCID=7e06390a
DTITLE=Various Artist - Bluegrass CD 2
DYEAR=2003
DGENRE=Bluegrass - Country
TTITLE0=Bill Monroe - Blue Moon Of Kentucky
TTITLE1=The Stonemans - Shady Grove
TTITLE2=Lester Flatt - Earl Scruggs - My Cabin In Carolina
TTITLE3=Kentucky Headhunters - The Ballad Of Davy Crockett
TTITLE4=Mac Wiseman - Jommy Brown The Newsboy
TTITLE5=The Stanley Brothers - Angel Band
TTITLE6=The Osborne Brothers - Red Allen - Ruby, Are You Mad
TTITLE7=Jimmy Martin - Hit Parade Of Love
TTITLE8=Area Code 615 - Stone Fox Chase
TTITLE9=Smokey River Boys - O Brother
EXTD=
EXTT0=
EXTT1=
EXTT2=
EXTT3=
EXTT4=
EXTT5=
EXTT6=
EXTT7=
EXTT8=
EXTT9=
PLAYORDER=
